<svg xmlns="http://www.w3.org/2000/svg" viewBox="0 0 1600 120" preserveAspectRatio="none">
  <defs>
    <linearGradient id="line" x1="0" y1="0" x2="1" y2="0">
      <stop offset="0" stop-color="#7e4324" stop-opacity="0.15"/>
      <stop offset="0.08" stop-color="#e9b38b" stop-opacity="0.9"/>
      <stop offset="0.5" stop-color="#c27b4b" stop-opacity="0.72"/>
      <stop offset="0.92" stop-color="#e9b38b" stop-opacity="0.9"/>
      <stop offset="1" stop-color="#7e4324" stop-opacity="0.15"/>
    </linearGradient>
    <radialGradient id="emberLeft" cx="0" cy="0" r="1" gradientUnits="userSpaceOnUse" gradientTransform="translate(170 95) rotate(90) scale(24 84)">
      <stop offset="0" stop-color="#fff0cf" stop-opacity="0.95"/>
      <stop offset="0.22" stop-color="#ffcc88" stop-opacity="0.95"/>
      <stop offset="0.55" stop-color="#ff8b2f" stop-opacity="0.9"/>
      <stop offset="1" stop-color="#ff6a1c" stop-opacity="0"/>
    </radialGradient>
    <radialGradient id="emberMid" cx="0" cy="0" r="1" gradientUnits="userSpaceOnUse" gradientTransform="translate(800 95) rotate(90) scale(20 72)">
      <stop offset="0" stop-color="#ffe8bc" stop-opacity="0.8"/>
      <stop offset="0.45" stop-color="#ff9a37" stop-opacity="0.8"/>
      <stop offset="1" stop-color="#ff6d20" stop-opacity="0"/>
    </radialGradient>
    <filter id="softGlow" x="-20%" y="-120%" width="140%" height="340%">
      <feGaussianBlur stdDeviation="8" result="blur"/>
      <feMerge>
        <feMergeNode in="blur"/>
        <feMergeNode in="SourceGraphic"/>
      </feMerge>
    </filter>
  </defs>

  <rect x="8" y="8" width="1584" height="104" rx="3" fill="none" stroke="url(#line)" stroke-width="1.5"/>
  <rect x="8" y="8" width="1584" height="104" rx="3" fill="none" stroke="#120807" stroke-opacity="0.45" stroke-width="6"/>
  <line x1="10" y1="16" x2="1590" y2="16" stroke="url(#line)" stroke-width="1.8"/>
  <line x1="10" y1="104" x2="1590" y2="104" stroke="url(#line)" stroke-width="2.2"/>
  <line x1="18" y1="27" x2="1582" y2="27" stroke="#f3c6a0" stroke-opacity="0.22" stroke-width="0.75" stroke-dasharray="14 22 9 28"/>
  <line x1="18" y1="96" x2="1582" y2="96" stroke="#f3c6a0" stroke-opacity="0.14" stroke-width="0.65" stroke-dasharray="22 36 8 26"/>

  <g filter="url(#softGlow)">
    <ellipse cx="170" cy="96" rx="65" ry="8" fill="url(#emberLeft)"/>
    <ellipse cx="800" cy="96" rx="50" ry="6" fill="url(#emberMid)"/>
    <ellipse cx="1430" cy="96" rx="60" ry="7" fill="url(#emberLeft)" transform="translate(2860 0) scale(-1 1)"/>
  </g>

  <line x1="320" y1="22" x2="320" y2="100" stroke="#f1cfb4" stroke-opacity="0.08" stroke-width="1"/>
  <line x1="800" y1="22" x2="800" y2="100" stroke="#f1cfb4" stroke-opacity="0.08" stroke-width="1"/>
  <line x1="1280" y1="22" x2="1280" y2="100" stroke="#f1cfb4" stroke-opacity="0.08" stroke-width="1"/>

  <path d="M24 24 L86 24" stroke="#ffbf87" stroke-opacity="0.24" stroke-width="1"/>
  <path d="M1514 24 L1576 24" stroke="#ffbf87" stroke-opacity="0.24" stroke-width="1"/>
  <path d="M24 96 L92 96" stroke="#ffbf87" stroke-opacity="0.18" stroke-width="1"/>
  <path d="M1508 96 L1576 96" stroke="#ffbf87" stroke-opacity="0.18" stroke-width="1"/>
</svg>
