<svg xmlns="http://www.w3.org/2000/svg" viewBox="0 0 1600 140" preserveAspectRatio="none">
  <defs>
    <linearGradient id="line" x1="0" y1="0" x2="1" y2="0">
      <stop offset="0" stop-color="#3a1c14"/>
      <stop offset="0.12" stop-color="#d9a06b"/>
      <stop offset="0.5" stop-color="#7b3a21"/>
      <stop offset="0.88" stop-color="#d9a06b"/>
      <stop offset="1" stop-color="#3a1c14"/>
    </linearGradient>
  </defs>
  <rect x="7" y="7" width="1586" height="126" rx="16" fill="none" stroke="url(#line)" stroke-opacity="0.55" stroke-width="2.4"/>
  <rect x="18" y="18" width="1564" height="104" rx="12" fill="none" stroke="#b56f45" stroke-opacity="0.23" stroke-width="1.1"/>
  <path d="M165 18v104M486 18v104M808 18v104M1129 18v104M1438 18v104" fill="none" stroke="#9f5d39" stroke-opacity="0.18" stroke-width="1.2"/>
  <path d="M17 42h110M1473 42h110M17 98h110M1473 98h110" fill="none" stroke="#cf8c56" stroke-opacity="0.22" stroke-width="1.2"/>
  <path d="M34 70h120M1446 70h120" fill="none" stroke="#f0c09a" stroke-opacity="0.16" stroke-width="0.8"/>
  <path d="M20 20l18 0 12 10M1580 20l-18 0 -12 10M20 120l18 0 12 -10M1580 120l-18 0 -12 -10" fill="none" stroke="#d89a6a" stroke-opacity="0.28" stroke-width="1.3" stroke-linecap="round"/>
</svg>
